<svg width="349" height="67" viewBox="0 0 349 67" fill="none" xmlns="http://www.w3.org/2000/svg">
<path d="M37.4258 0.105469C40.7135 0.105469 43.6921 0.59375 46.3613 1.57031C49.0306 2.54688 51.293 3.88151 53.1484 5.57422C55.0365 7.26693 56.485 9.2526 57.4941 11.5312C58.5033 13.7773 59.0078 16.1699 59.0078 18.709V48.3965C59.0078 50.9355 58.5033 53.3444 57.4941 55.623C56.485 57.8691 55.0365 59.8385 53.1484 61.5312C51.293 63.224 49.0306 64.5586 46.3613 65.5352C43.6921 66.5117 40.7135 67 37.4258 67H22.3867C19.099 67 16.1204 66.5117 13.4512 65.5352C10.7819 64.5586 8.50326 63.224 6.61523 61.5312C4.75977 59.8385 3.32747 57.8691 2.31836 55.623C1.30924 53.3444 0.804688 50.9355 0.804688 48.3965V18.709C0.804688 16.1699 1.30924 13.7773 2.31836 11.5312C3.32747 9.2526 4.75977 7.26693 6.61523 5.57422C8.50326 3.88151 10.7819 2.54688 13.4512 1.57031C16.1204 0.59375 19.099 0.105469 22.3867 0.105469H37.4258ZM29.8086 5.28125L27.123 4.5H20.7266L16.625 5.18359L13.5 8.30859V44.8809H18.7246V10.1152C19.1803 10.0176 19.5872 9.95247 19.9453 9.91992C20.3034 9.88737 20.694 9.80599 21.1172 9.67578H26.6836C27.0417 9.80599 27.3835 9.88737 27.709 9.91992C28.0671 9.95247 28.4251 10.0176 28.7832 10.1152V30.8184H34.0078V10.1152L36.1074 9.67578H41.7227C42.1133 9.80599 42.5039 9.88737 42.8945 9.91992C43.2852 9.95247 43.6921 10.0176 44.1152 10.1152V44.8809H49.291V8.30859L46.2148 5.18359L42.1133 4.5H35.7168L33.0801 5.28125L31.4199 8.65039L29.8086 5.28125ZM81.2246 4.5H75.1211L87.3281 33.5039V44.8809H92.5039V33.6016L104.906 4.5H98.8027L89.916 26.4238L81.2246 4.5ZM95.2383 0.105469C98.526 0.105469 101.505 0.59375 104.174 1.57031C106.843 2.54688 109.105 3.88151 110.961 5.57422C112.849 7.26693 114.298 9.2526 115.307 11.5312C116.316 13.7773 116.82 16.1699 116.82 18.709V48.3965C116.82 50.9355 116.316 53.3444 115.307 55.623C114.298 57.8691 112.849 59.8385 110.961 61.5312C109.105 63.224 106.843 64.5586 104.174 65.5352C101.505 66.5117 98.526 67 95.2383 67H80.1992C76.9115 67 73.9329 66.5117 71.2637 65.5352C68.5944 64.5586 66.3158 63.224 64.4277 61.5312C62.5723 59.8385 61.14 57.8691 60.1309 55.623C59.1217 53.3444 58.6172 50.9355 58.6172 48.3965V18.709C58.6172 16.1699 59.1217 13.7773 60.1309 11.5312C61.14 9.2526 62.5723 7.26693 64.4277 5.57422C66.3158 3.88151 68.5944 2.54688 71.2637 1.57031C73.9329 0.59375 76.9115 0.105469 80.1992 0.105469H95.2383ZM152.416 4.5H140.648L135.619 5.08594L132.543 8.21094L131.811 12.3125V37.1172L132.543 41.2188L135.717 44.2949L140.648 44.8809H152.416L158.129 44.1973L156.908 38.9238L152.318 39.7051H140.941L137.719 39.2168L137.035 36.2871V12.8008L137.523 10.1152L140.941 9.57812H152.123L157.152 10.4082L158.129 5.18359L152.416 4.5ZM153.051 0.105469C156.339 0.105469 159.317 0.59375 161.986 1.57031C164.656 2.54688 166.918 3.88151 168.773 5.57422C170.661 7.26693 172.11 9.2526 173.119 11.5312C174.128 13.7773 174.633 16.1699 174.633 18.709V48.3965C174.633 50.9355 174.128 53.3444 173.119 55.623C172.11 57.8691 170.661 59.8385 168.773 61.5312C166.918 63.224 164.656 64.5586 161.986 65.5352C159.317 66.5117 156.339 67 153.051 67H138.012C134.724 67 131.745 66.5117 129.076 65.5352C126.407 64.5586 124.128 63.224 122.24 61.5312C120.385 59.8385 118.952 57.8691 117.943 55.623C116.934 53.3444 116.43 50.9355 116.43 48.3965V18.709C116.43 16.1699 116.934 13.7773 117.943 11.5312C118.952 9.2526 120.385 7.26693 122.24 5.57422C124.128 3.88151 126.407 2.54688 129.076 1.57031C131.745 0.59375 134.724 0.105469 138.012 0.105469H153.051ZM221.02 4.5H215.941V21.5898H195.629V4.5H190.453V44.8809H195.629V26.7168H215.941V44.8809H221.02V4.5ZM210.863 0.105469C214.151 0.105469 217.13 0.59375 219.799 1.57031C222.468 2.54688 224.73 3.88151 226.586 5.57422C228.474 7.26693 229.923 9.2526 230.932 11.5312C231.941 13.7773 232.445 16.1699 232.445 18.709V48.3965C232.445 50.9355 231.941 53.3444 230.932 55.623C229.923 57.8691 228.474 59.8385 226.586 61.5312C224.73 63.224 222.468 64.5586 219.799 65.5352C217.13 66.5117 214.151 67 210.863 67H195.824C192.536 67 189.558 66.5117 186.889 65.5352C184.219 64.5586 181.941 63.224 180.053 61.5312C178.197 59.8385 176.765 57.8691 175.756 55.623C174.747 53.3444 174.242 50.9355 174.242 48.3965V18.709C174.242 16.1699 174.747 13.7773 175.756 11.5312C176.765 9.2526 178.197 7.26693 180.053 5.57422C181.941 3.88151 184.219 2.54688 186.889 1.57031C189.558 0.59375 192.536 0.105469 195.824 0.105469H210.863ZM274.682 44.832V33.6992V12.3125V8.21094L271.361 5.08594L266.479 4.5H255.346L249.633 5.18359L250.854 10.5059L255.443 9.57812H266.332L269.262 10.2129L269.945 12.8008V24.1777L266.479 23.5918H255.346L250.463 24.3242L247.338 27.4004L246.654 31.4043V37.1172L247.338 41.2188L250.463 44.2949L255.346 44.8809H266.039L269.848 44.2949L274.682 44.832ZM269.945 39.2168L266.137 39.7051H255.639L252.562 39.2168L251.879 36.2871V32.0879L252.27 29.3047L255.639 28.8164H266.234L269.945 29.207V36.5801V39.2168ZM268.676 0.105469C271.964 0.105469 274.942 0.59375 277.611 1.57031C280.281 2.54688 282.543 3.88151 284.398 5.57422C286.286 7.26693 287.735 9.2526 288.744 11.5312C289.753 13.7773 290.258 16.1699 290.258 18.709V48.3965C290.258 50.9355 289.753 53.3444 288.744 55.623C287.735 57.8691 286.286 59.8385 284.398 61.5312C282.543 63.224 280.281 64.5586 277.611 65.5352C274.942 66.5117 271.964 67 268.676 67H253.637C250.349 67 247.37 66.5117 244.701 65.5352C242.032 64.5586 239.753 63.224 237.865 61.5312C236.01 59.8385 234.577 57.8691 233.568 55.623C232.559 53.3444 232.055 50.9355 232.055 48.3965V18.709C232.055 16.1699 232.559 13.7773 233.568 11.5312C234.577 9.2526 236.01 7.26693 237.865 5.57422C239.753 3.88151 242.032 2.54688 244.701 1.57031C247.37 0.59375 250.349 0.105469 253.637 0.105469H268.676ZM335.766 4.5H307.543V9.67578H319.066V44.8809H324.291V9.67578H335.766V4.5ZM326.488 0.105469C329.776 0.105469 332.755 0.59375 335.424 1.57031C338.093 2.54688 340.355 3.88151 342.211 5.57422C344.099 7.26693 345.548 9.2526 346.557 11.5312C347.566 13.7773 348.07 16.1699 348.07 18.709V48.3965C348.07 50.9355 347.566 53.3444 346.557 55.623C345.548 57.8691 344.099 59.8385 342.211 61.5312C340.355 63.224 338.093 64.5586 335.424 65.5352C332.755 66.5117 329.776 67 326.488 67H311.449C308.161 67 305.183 66.5117 302.514 65.5352C299.844 64.5586 297.566 63.224 295.678 61.5312C293.822 59.8385 292.39 57.8691 291.381 55.623C290.372 53.3444 289.867 50.9355 289.867 48.3965V18.709C289.867 16.1699 290.372 13.7773 291.381 11.5312C292.39 9.2526 293.822 7.26693 295.678 5.57422C297.566 3.88151 299.844 2.54688 302.514 1.57031C305.183 0.59375 308.161 0.105469 311.449 0.105469H326.488Z" fill="white"/>
<path d="M1 80.2812H347.875V82.2832H1V80.2812Z" fill="white"/>
</svg>
